<svg width="1777" height="1069" fill="none" xmlns="http://www.w3.org/2000/svg"><path d="M44.174 844.242.827 799.754a.5.5 0 0 1 .358-.849H276.23c.125 0 .246.047.338.132l48.48 44.488a.5.5 0 0 1-.338.868H44.532a.502.502 0 0 1-.358-.151Zm307.287-4.393-45.752-40.068a.5.5 0 0 1 .33-.876h99.644a.5.5 0 0 1 .354.147l21.965 21.965a.5.5 0 0 1-.237.839l-75.859 18.103a.498.498 0 0 1-.445-.11Zm170.238 25.365-91.792-65.402a.5.5 0 0 1 .29-.907h224.029c.529 0 .696.714.222.948L522.21 865.255a.5.5 0 0 1-.511-.041ZM89.955 887.406l-21.718-21.161a.5.5 0 0 1 .349-.858h126.287c.128 0 .251.049.344.138l22.275 21.161a.5.5 0 0 1-.344.862H90.304a.5.5 0 0 1-.349-.142Zm59.485 33.54-21.675-20.287a.5.5 0 0 1 .341-.864h105.285c.111 0 .219.036.306.105l26.122 20.286a.5.5 0 0 1-.306.894H149.782a.504.504 0 0 1-.342-.134Zm45.485 39.932-27.013-27.576a.5.5 0 0 1 .357-.85h131.879c.121 0 .238.044.329.124l31.515 27.576a.5.5 0 0 1-.329.876H195.282a.5.5 0 0 1-.357-.15Zm84.791-55.397-56.221-39.184a.5.5 0 0 1 .286-.91h120.727c.097 0 .192.029.274.082l16.812 11.024a.5.5 0 0 1-.111.89l-81.318 28.16a.501.501 0 0 1-.449-.062Zm59.175 39.627-37.816-29.287a.5.5 0 0 1 .147-.869l81.652-27.313a.498.498 0 0 1 .488.099l30.664 26.972a.5.5 0 0 1-.146.84l-74.498 29.627a.502.502 0 0 1-.491-.069Zm93.582-39.674-62.235-49.042a.5.5 0 0 1 .187-.877l76.948-19.524a.502.502 0 0 1 .399.068l54.187 35.838a.5.5 0 0 1-.061.868l-68.901 32.728a.498.498 0 0 1-.524-.059Zm-21.918 90.36-55.307-42.411a.5.5 0 0 1 .107-.856l73.016-31.334a.501.501 0 0 1 .494.057l42.367 31.203a.5.5 0 0 1-.008.811l-60.076 42.542a.5.5 0 0 1-.593-.012Zm111.074-115.086-67.835 34.205a.5.5 0 0 0-.102.824l33.994 29.423a.498.498 0 0 0 .327.122h63.722a.498.498 0 0 0 .391-.189l38.571-48.57a.5.5 0 0 0-.392-.811h-52.126a.504.504 0 0 1-.344-.136l-15.638-14.785a.498.498 0 0 0-.568-.083Zm-92.491 123.112 58.549-42.69c.09-.066.2-.1.312-.096l112.19 4.059a.5.5 0 0 1 .482.499v6.166a.5.5 0 0 1-.329.47l-146.936 53.432a.487.487 0 0 1-.501-.1l-23.803-20.97a.49.49 0 0 1 .036-.77Zm290.793-204.915c-12.554-3.275-146.425 65.73-163.535 74.59-.464.24-.275.931.248.931h134.978c.193 0 .369.113.452.287 15.311 32.129 44.51 53.074 55.558 53.074h102.033a.43.43 0 0 0 .429-.282c1.956-4.792 28.223-69.305 29.627-81.654 1.457-12.821-16.336-36.544-35.251-46.929a.662.662 0 0 0-.066-.03c-21.384-7.971-32.238-6.205-50.206 3.403a.514.514 0 0 0-.255.337c-6.431 28.522-16.24 34.162-38.439 36.221-22.293-.74-22.16-36.449-35.573-39.948Z" fill="#D5C780"/><path d="M616.364 899.211h65.973c.169 0 .328.089.421.231 21.993 33.596 38.706 43.275 72.691 51.367a.548.548 0 0 1 .105.038c27.836 13.719 63.223 34.101 60.892 47.213-2.333 13.12-8.242 15.93-29.159 15.75-36.647-1.8-62.372-20.674-110.66-62.862a.505.505 0 0 0-.331-.126H575.475a.5.5 0 0 1-.389-.813l40.889-50.612a.502.502 0 0 1 .389-.186Zm1115.506-55.196 43.35-44.488a.5.5 0 0 0-.36-.848h-275.04a.49.49 0 0 0-.34.131L1451 843.298a.498.498 0 0 0 .33.868h280.18c.14 0 .27-.054.36-.151Zm-307.28-4.393 45.75-40.068c.34-.304.13-.875-.33-.875h-99.65c-.13 0-.26.052-.35.146l-21.97 21.965a.503.503 0 0 0 .24.84l75.86 18.102c.16.038.32-.003.45-.11Zm-170.24 25.365 91.79-65.402c.4-.282.2-.906-.29-.906h-224.03c-.53 0-.7.713-.22.947l132.24 65.402c.16.081.36.066.51-.041Zm431.74 22.192 21.72-21.161a.5.5 0 0 0-.35-.858h-126.29c-.12 0-.25.049-.34.138l-22.28 21.161c-.32.311-.1.862.35.862h126.84c.13 0 .26-.051.35-.142Zm-59.48 33.539 21.67-20.286a.5.5 0 0 0-.34-.865h-105.28c-.12 0-.22.037-.31.106l-26.12 20.286a.498.498 0 0 0 .3.894h109.73c.13 0 .25-.048.35-.135Zm-45.49 39.933 27.01-27.576c.31-.317.09-.85-.35-.85H1475.9a.5.5 0 0 0-.33.124l-31.52 27.576c-.34.304-.13.876.33.876h136.38a.49.49 0 0 0 .36-.15Zm-84.79-55.397 56.22-39.184c.4-.28.2-.91-.29-.91h-120.72c-.1 0-.19.029-.28.082l-16.81 11.024a.502.502 0 0 0 .11.89l81.32 28.16c.15.052.32.029.45-.062Zm-59.18 39.626 37.82-29.286a.498.498 0 0 0-.15-.869l-81.65-27.313a.505.505 0 0 0-.49.099l-30.66 26.972a.5.5 0 0 0 .15.84l74.49 29.627c.17.065.35.039.49-.07Zm-93.58-39.673 62.24-49.041a.502.502 0 0 0-.19-.877l-76.95-19.525a.51.51 0 0 0-.4.068l-54.18 35.838a.498.498 0 0 0 .06.868l68.9 32.728c.17.082.37.059.52-.059Zm21.92 90.36 55.31-42.411a.502.502 0 0 0-.11-.856l-73.02-31.334a.494.494 0 0 0-.49.057l-42.37 31.203a.5.5 0 0 0 .01.81l60.08 42.542c.18.127.42.122.59-.011Zm-111.07-115.086 67.83 34.205c.32.16.37.591.1.824l-33.99 29.423a.504.504 0 0 1-.33.122h-63.72c-.15 0-.3-.07-.39-.189l-38.57-48.57a.5.5 0 0 1 .39-.811h52.13c.13 0 .25-.049.34-.136l15.64-14.785a.5.5 0 0 1 .57-.083Zm92.49 123.109-58.55-42.687a.496.496 0 0 0-.31-.096l-112.19 4.058a.507.507 0 0 0-.49.5v6.166c0 .21.14.398.33.47l146.94 53.429c.17.06.36.03.5-.09l23.8-20.97a.5.5 0 0 0-.03-.78Zm-290.79-204.911c12.55-3.275 146.42 65.73 163.53 74.589.46.241.27.931-.25.931h-134.98a.5.5 0 0 0-.45.287c-15.31 32.129-44.51 53.074-55.56 53.074H926.381a.43.43 0 0 1-.429-.282c-1.956-4.792-28.223-69.305-29.627-81.654-1.457-12.821 16.336-36.544 35.251-46.928a.393.393 0 0 1 .066-.03c21.384-7.972 32.238-6.206 50.206 3.402a.519.519 0 0 1 .255.337c6.43 28.522 16.239 34.163 38.437 36.221 22.3-.739 22.16-36.448 35.58-39.947Z" fill="#D5C780"/><path d="M1159.68 898.984h-65.97c-.17 0-.33.089-.42.23-21.99 33.597-38.71 43.275-72.69 51.368a.598.598 0 0 0-.11.038c-27.834 13.718-63.222 34.101-60.89 47.212 2.332 13.118 8.242 15.928 29.159 15.748 36.651-1.8 62.371-20.671 110.661-62.86a.507.507 0 0 1 .33-.125h100.82c.42 0 .65-.487.39-.814l-40.89-50.611a.498.498 0 0 0-.39-.186Z" fill="#D5C780"/><path d="m863.211 948.398 24.164-72.492 26.707 72.492h74.082l-59.456 47.374 22.892 72.488-64.225-43.55-59.774 43.55 16.851-72.488-56.277-47.374h75.036Z" fill="#8E823A"/><path d="M884.672 820.199c-11.433-20.918-39.947-38.193-41.988-39.947-2.041-1.755 1.581-14.325 0-24.489-5.275-16.708-11.414-23.119-27.118-29.742-21.661-2.14-33.951-3.981-52.777 6.415 0 0 0-20.12 4.665-26.243 4.665-6.123 27.207-19.743 59.484-18.078 14.691-24.756 28.526-28.22 57.734-25.952 32.931 2.986 45.375 16.433 67.066 41.406 18.352 33.716 20.289 50.552 24.493 80.765-18.584-6.345-37.906-7.869-51.028-4.082-13.121 3.787-28.007 18.941-40.531 39.947ZM628.37 775.905l-210.526-3.79c-41.657-58.949-57.515-90.561-79.604-145.795l290.13 149.585ZM324.244 586.373l240.852 130.923-255.723-262.721c-2.245 50.277.528 79.064 14.871 131.798Zm-23.91-171.162 176.411 181.368-147.252-300.336c-20.158 41.677-26.147 67.941-29.159 118.968Zm84.852-237.936 44.613 277.3-91.559-194.781c13.954-35.866 24.666-53.573 46.946-82.519Zm82.52-95.932-66.191 68.523 28.284 162.123 37.907-230.646ZM577.634.281l-92.142 55.985-17.786 130.632L577.634.281Zm554.876 775.343 210.53-3.791c41.65-58.948 57.51-90.561 79.6-145.794l-290.13 149.585Zm304.13-189.532-240.86 130.923 255.73-262.721c2.24 50.277-.53 79.063-14.87 131.798Zm23.91-171.162-176.41 181.367 147.25-300.335c20.16 41.677 26.14 67.941 29.16 118.968Zm-84.86-237.936-44.61 277.3 91.56-194.781c-13.95-35.866-24.67-53.574-46.95-82.519Zm-82.52-95.933 66.19 68.524-28.28 162.122-37.91-230.646ZM1183.25 0l92.14 55.985 17.78 130.631L1183.25 0Z" fill="#D5C780"/><path d="M692.822 755.218h42.708V636.584l13.558-27.794c-11.824-25.959-7.635-34.474 14.914-41.353-14.035-33.333-3.263-38.585 32.54-35.929-16.207-28.511-12.031-38.188 18.304-44.065l20.337-21.693h29.828c.554-6.536 4.745-10.168 8.813-10.168 4.067 0 9.005 4.122 8.813 10.168h34.573l12.881 18.982c26.641-.096 32.145 8.244 30.506 34.573 26.753 2.216 34.403 9.858 36.607 37.963 12.606 14.431 14.026 25.192 11.526 46.776l12.88 25.761v125.413h63.72V412.873H692.822v342.345Zm-42.709-157.275v131.515h-6.779l-82.027-126.092v-8.135l88.806 2.712Zm467.757 126.092h-10.17V587.774l73.9-16.947 2.71 7.457-66.44 145.751Z" fill="#D5C780"/><path d="m1225.66 506.425-123.38 12.88-2.03-127.447-444.036 6.101v133.549L517.92 519.305v-46.776l132.193-83.383 458.267-6.779 117.28 65.758v58.3Z" fill="#D5C780"/><path d="m490.808 429.127 5.423 8.813 149.819-99.653 500.3-6.779 96.94 59.656 4.74-8.813-98.29-59.656h-56.95l-92.871-50.843-254.894 2.711-82.027 54.911h-22.372l-40.674 27.116-109.144 72.537Z" fill="#D5C780"/><path d="M549.114 355.929h52.877l15.592-8.813-35.251-1.355 138.972-85.417 303.706-4.746 174.22 80.672-18.98 4.745 10.17 6.101 35.93-9.49-199.31-92.196-305.736 5.423-172.19 105.076Z" fill="#D5C780"/><path d="M638.593 277.96v27.795l8.135-4.068v-17.626l98.975-67.791 267.097-2.034 114.57 42.031-.68 35.251 10.17 4.746.68-46.098-119.99-44.064-275.914 2.711-103.043 69.147Z" fill="#D5C780"/><path d="m706.386 234.576-46.098 32.54c11.423-63.502 35.01-90.711 99.653-128.125 51.942-23.105 117.957-24.407 125.414-24.405 7.457.002 84.312 4.678 130.835 24.405 70.96 32.728 84.73 57.588 99.65 104.398l-43.38-15.592c-32.5-68.183-146.431-105.749-187.105-106.432-40.675-.683-157.756 40.348-178.969 113.211Z" fill="#D5C780"/><path d="M888.744 121.39c-58.978 2.044-110.665 29.876-122.701 88.806h-9.491c14.496-65.361 55.588-95.585 132.192-96.263 76.604-.679 120.526 30.942 130.156 92.873h-8.81c-10.985-52.658-62.367-87.461-121.346-85.416Z" fill="#D5C780"/><path d="M855.524 116.621h8.813c5.343-8.172 9.917-11.169 22.371-12.203 13.333 1.36 17.018 4.778 21.693 12.203h11.524c-3.359-6.781-5.431-10.3-11.524-12.203-3.997-8.268-7.281-11.323-13.558-12.202-.42-19.065-.983-29.752-3.39-48.81h-8.813c-3.642 18.826-4.397 29.579-5.423 48.81-6.82 2.621-9.486 5.478-12.88 12.202-7.479 3.648-8.66 6.503-8.813 12.203Z" fill="#D5C780"/></svg>